<svg xmlns="http://www.w3.org/2000/svg" viewBox="0 0 640 760" role="img" aria-labelledby="title desc">
  <title id="title">BillyDev profile placeholder</title>
  <desc id="desc">Stylized avatar illustration for a developer portfolio.</desc>
  <defs>
    <linearGradient id="bg" x1="0%" x2="100%" y1="0%" y2="100%">
      <stop offset="0%" stop-color="#0F172A"/>
      <stop offset="100%" stop-color="#111827"/>
    </linearGradient>
    <linearGradient id="panel" x1="0%" x2="100%" y1="0%" y2="100%">
      <stop offset="0%" stop-color="#38BDF8"/>
      <stop offset="100%" stop-color="#8B5CF6"/>
    </linearGradient>
  </defs>
  <rect width="640" height="760" rx="40" fill="url(#bg)"/>
  <circle cx="320" cy="245" r="130" fill="#0B1220" stroke="url(#panel)" stroke-width="12"/>
  <path d="M220 610c14-118 76-178 100-178S406 492 420 610v60H220v-60Z" fill="#0B1220" stroke="url(#panel)" stroke-width="12"/>
  <path d="M260 235c0-50 28-88 60-88s60 38 60 88-28 88-60 88-60-38-60-88Z" fill="#E2E8F0"/>
  <path d="M278 250c10-29 36-47 61-47 20 0 39 9 52 25-15 10-39 20-63 20-21 0-37-2-50 2Z" fill="#111827" opacity="0.9"/>
  <rect x="120" y="120" width="140" height="70" rx="26" fill="url(#panel)" opacity="0.25"/>
  <rect x="380" y="90" width="120" height="90" rx="24" fill="url(#panel)" opacity="0.2"/>
  <rect x="420" y="610" width="110" height="24" rx="12" fill="#38BDF8" opacity="0.9"/>
  <rect x="118" y="642" width="160" height="20" rx="10" fill="#8B5CF6" opacity="0.7"/>
</svg>
